1.8Hz3min_grf.mot
version=1
nRows=20
nColumns 19
inDegrees=yes
endheader
time	1_ground_force_vx	1_ground_force_vy	1_ground_force_vz	1_ground_force_px	1_ground_force_py	1_ground_force_pz	1_ground_torque_x	1_ground_torque_y	1_ground_torque_z	2_ground_force_vx	2_ground_force_vy	2_ground_force_vz	2_ground_force_px	2_ground_force_py	2_ground_force_pz	2_ground_torque_x	2_ground_torque_y	2_ground_torque_z
            1.253500	            0.045484	            0.721465	           -0.088734	           -0.233013	            0.005581	           -0.255695	           -0.428889	            0.130310	           -0.222025	            0.694323	           -5.672547	           42.168374	           -0.232311	            0.006130	           -0.833667	            2.114059	           -8.108910	           -0.991220
            1.254000	            0.137364	            0.901355	            0.003523	           -0.233013	            0.005581	           -0.255695	           -0.470545	            0.139752	           -0.255574	            0.742502	           -6.040674	           42.167040	           -0.232311	            0.006130	           -0.833667	            2.114026	           -8.108641	           -1.066621
            1.254500	            0.458688	            1.080896	            0.186924	           -0.233013	            0.005581	           -0.255695	           -0.459731	            0.186206	           -0.260523	            0.646768	           -5.488233	           42.075194	           -0.232311	            0.006130	           -0.833667	            2.114042	           -8.108776	           -1.028920
            1.255000	            0.000195	            0.179872	            0.092485	           -0.233013	            0.005581	           -0.255695	           -0.398967	            0.149030	           -0.280349	            0.888369	           -7.513354	           42.161723	           -0.232311	            0.006130	           -0.833667	            2.076472	           -8.108911	           -1.028904
            1.255500	            0.000728	            1.620622	            0.419660	           -0.233013	            0.005581	           -0.255695	           -0.507572	            0.103045	           -0.336722	            0.504848	           -5.120109	           41.982712	           -0.232311	            0.006130	           -0.833667	            2.095156	           -8.089669	           -1.104246
            1.256000	            0.046020	            0.900747	            0.141319	           -0.233013	            0.005581	           -0.255695	           -0.495369	            0.084572	           -0.334851	            0.600562	           -5.672383	           42.027629	           -0.232311	            0.006130	           -0.833667	            2.113941	           -8.089601	           -1.104254
            1.256500	            0.184022	            0.179121	            0.275453	           -0.233013	            0.005581	           -0.255695	           -0.444252	            0.075084	           -0.253936	            0.553006	           -5.488069	           41.934450	           -0.232311	            0.006130	           -0.833667	            2.057551	           -8.080352	           -1.104196
            1.257000	            0.045921	            1.441544	            0.143638	           -0.233013	            0.005581	           -0.255695	           -0.458136	            0.139959	           -0.315927	            0.696214	           -6.224155	           41.931762	           -0.232311	            0.006130	           -0.833667	            2.095113	           -8.080149	           -1.123062
            1.257500	            0.046017	            2.162214	            0.238441	           -0.233013	            0.005581	           -0.255695	           -0.556379	            0.186160	           -0.315511	            0.787379	           -5.488228	           42.215919	           -0.232311	            0.006130	           -0.833667	            2.151427	           -8.070426	           -1.141902
            1.258000	            0.183792	            1.440981	            0.280864	           -0.233013	            0.005581	           -0.255695	           -0.501490	            0.167668	           -0.291038	            0.789976	           -6.224319	           42.072506	           -0.232311	            0.006130	           -0.833667	            2.151452	           -8.070627	           -1.085352
            1.258500	            0.092106	            1.440963	            0.281092	           -0.233013	            0.005581	           -0.255695	           -0.501726	            0.131056	           -0.389095	            0.650009	           -6.408305	           41.884197	           -0.232311	            0.006130	           -0.833667	            2.057601	           -8.089939	           -1.066529
            1.259000	           -0.183051	            1.981707	            0.284093	           -0.233013	            0.005581	           -0.255695	           -0.445448	            0.065672	           -0.269675	            0.600603	           -5.672718	           42.121485	           -0.232311	            0.006130	           -0.833667	            2.020021	           -8.080824	           -1.009929
            1.259500	           -0.182641	            0.359120	            0.322992	           -0.233013	            0.005581	           -0.255695	           -0.484050	            0.093638	           -0.325796	            0.273901	           -6.041529	           41.932598	           -0.232311	            0.006130	           -0.833667	            2.132852	           -8.108909	           -0.972378
            1.260000	            0.000093	            1.982136	            0.191926	           -0.233013	            0.005581	           -0.255695	           -0.516575	            0.148849	           -0.242525	            0.603803	           -6.592455	           41.836632	           -0.232311	            0.006130	           -0.833667	            2.020107	           -8.109048	           -1.047730
            1.260500	            0.045888	            1.621810	            0.144411	           -0.233013	            0.005581	           -0.255695	           -0.570743	            0.130452	           -0.259300	            0.883573	           -6.223144	           41.837826	           -0.232311	            0.006130	           -0.833667	            2.095103	           -8.061714	           -0.991043
            1.261000	           -0.045618	            1.261064	            0.188948	           -0.233013	            0.005581	           -0.255695	           -0.516258	            0.158313	           -0.300809	            0.602638	           -6.225498	           42.213370	           -0.232311	            0.006130	           -0.833667	            2.076430	           -8.108575	           -1.123155
            1.261500	            0.092349	            1.981171	            0.420978	           -0.233013	            0.005581	           -0.255695	           -0.470347	            0.121743	           -0.370433	            0.648741	           -6.040511	           42.026295	           -0.232311	            0.006130	           -0.833667	            2.189227	           -8.127208	           -1.085570
            1.262000	           -0.045894	            0.901123	            0.049835	           -0.233013	            0.005581	           -0.255695	           -0.397706	            0.112437	           -0.376479	            0.507568	           -5.857205	           42.120868	           -0.232311	            0.006130	           -0.833667	            2.188988	           -8.061039	           -1.085334
            1.262500	           -0.045813	            1.081192	            0.096463	           -0.233013	            0.005581	           -0.255695	           -0.512215	            0.065877	           -0.301209	            0.600582	           -5.672551	           42.074557	           -0.232311	            0.006130	           -0.833667	            2.113720	           -8.032751	           -1.141752
            1.263000	           -0.000281	            2.162991	            0.055131	           -0.233013	            0.005581	           -0.255695	           -0.379640	            0.075327	           -0.337177	            0.550389	           -4.751811	           42.030934	           -0.232311	            0.006130	           -0.833667	            2.057585	           -8.089805	           -1.104230
